<?xml version="1.0" encoding="UTF-8"?>
<!DOCTYPE svg PUBLIC "-//W3C//DTD SVG 1.1//EN" "http://www.w3.org/Graphics/SVG/1.1/DTD/svg11.dtd">
<svg xmlns="http://www.w3.org/2000/svg" version="1.1" width="512px" height="512px" style="shape-rendering:geometricPrecision; text-rendering:geometricPrecision; image-rendering:optimizeQuality; fill-rule:evenodd; clip-rule:evenodd" xmlns:xlink="http://www.w3.org/1999/xlink">
<g><path style="opacity:1" fill="#e2e2e2" d="M -0.5,-0.5 C 25.1667,-0.5 50.8333,-0.5 76.5,-0.5C 62.1916,9.57927 49.6916,21.5793 39,35.5C 32.0515,48.5696 24.0515,60.2362 15,70.5C 13.3605,73.7423 12.3605,77.0757 12,80.5C 15.5661,75.1505 19.5661,70.1505 24,65.5C 24.1667,66 24.3333,66.5 24.5,67C 19.7463,75.7531 14.5796,84.2531 9,92.5C 9.30733,103.41 6.14067,113.077 -0.5,121.5C -0.5,80.8333 -0.5,40.1667 -0.5,-0.5 Z"/></g>
<g><path style="opacity:1" fill="#dddddd" d="M 76.5,-0.5 C 198.5,-0.5 320.5,-0.5 442.5,-0.5C 462.287,13.7744 480.454,30.1078 497,48.5C 500.453,54.8592 503.119,61.5258 505,68.5C 506.699,71.921 508.865,74.921 511.5,77.5C 511.5,209.167 511.5,340.833 511.5,472.5C 508.903,476.266 505.736,479.6 502,482.5C 496.311,492.333 490.478,501.999 484.5,511.5C 467.833,511.5 451.167,511.5 434.5,511.5C 448.724,502.784 459.557,491.117 467,476.5C 466.282,477.451 465.449,477.617 464.5,477C 466.123,474.92 467.623,472.754 469,470.5C 468.58,474.338 469.747,474.504 472.5,471C 472.167,470.667 471.833,470.333 471.5,470C 481.6,451.099 487.433,431.599 489,411.5C 490.216,405.85 492.216,400.517 495,395.5C 495.327,387.894 496.16,380.394 497.5,373C 496.852,369.584 496.518,366.084 496.5,362.5C 497.871,351.89 498.538,341.224 498.5,330.5C 498.262,320.812 497.595,313.145 496.5,307.5C 497.823,287 497.823,266.5 496.5,246C 497.518,239.849 498.185,232.016 498.5,222.5C 497.017,201.213 496.183,179.879 496,158.5C 494.333,154.5 492.667,150.5 491,146.5C 489.901,132.04 487.901,117.707 485,103.5C 481.742,93.7333 478.076,84.0666 474,74.5C 473.667,75.5 473.333,76.5 473,77.5C 469.841,70.5122 466.174,63.8455 462,57.5C 452.035,47.5221 441.535,38.3554 430.5,30C 415.047,22.5088 398.713,18.8422 381.5,19C 394.001,17.7858 406.168,19.2858 418,23.5C 419.722,23.3893 419.888,22.8893 418.5,22C 399.332,16.159 379.999,15.159 360.5,19C 354.392,20.8882 348.392,23.0548 342.5,25.5C 339.498,24.3699 336.665,23.7032 334,23.5C 326.754,29.0868 319.254,34.2534 311.5,39C 312.167,39.3333 312.833,39.6667 313.5,40C 309.957,41.6083 306.957,43.9416 304.5,47C 303.5,47.6667 302.5,47.6667 301.5,47C 302.833,45.6667 304.167,44.3333 305.5,43C 305,42.5 304.5,42 304,41.5C 301.736,44.4335 298.902,46.6001 295.5,48C 294.929,49.2051 294.262,50.3717 293.5,51.5C 287.734,54.5883 281.567,56.5883 275,57.5C 267.96,55.389 261.127,52.889 254.5,50C 250.024,46.0047 245.357,42.0047 240.5,38C 239.5,37.3333 238.5,37.3333 237.5,38C 240.128,39.6255 242.461,41.6255 244.5,44C 243.833,44.6667 243.167,44.6667 242.5,44C 239.348,40.846 235.681,38.5127 231.5,37C 230.167,36.3333 230.167,35.6667 231.5,35C 222.567,29.1932 213.234,23.8599 203.5,19C 199.465,18.3035 195.465,18.4701 191.5,19.5C 170.456,11.6328 149.123,10.2995 127.5,15.5C 125.655,14.0622 124.489,14.3956 124,16.5C 123.086,15.3463 122.253,15.513 121.5,17C 122.167,17.1667 122.833,17.3333 123.5,17.5C 128.412,15.9273 133.412,15.4273 138.5,16C 105.226,17.1393 79.5594,32.1393 61.5,61C 61.8333,61.3333 62.1667,61.6667 62.5,62C 60.1667,64.3333 57.8333,66.6667 55.5,69C 55.9574,69.414 56.2907,69.914 56.5,70.5C 46.9751,89.0274 41.4751,108.027 40,127.5C 38.6232,132.679 36.7898,137.679 34.5,142.5C 33.6519,150.206 32.6519,157.872 31.5,165.5C 31.5108,231.147 31.5108,296.813 31.5,362.5C 32.2578,369.138 32.7578,375.804 33,382.5C 37.7618,391.735 40.2618,402.235 40.5,414C 40.2935,415.366 39.9602,416.699 39.5,418C 41.958,429.312 45.2913,440.312 49.5,451C 48.6965,453.301 49.1965,455.468 51,457.5C 51.9147,456.672 52.5814,455.672 53,454.5C 55.1343,456.578 54.9677,458.412 52.5,460C 55.0167,466.201 58.1834,472.034 62,477.5C 62.3333,476.833 62.6667,476.167 63,475.5C 73.1616,490.83 86.3283,502.83 102.5,511.5C 85.5,511.5 68.5,511.5 51.5,511.5C 44.9223,504.082 38.089,496.749 31,489.5C 27.6443,479.042 22.9776,469.376 17,460.5C 16.6667,460.833 16.3333,461.167 16,461.5C 15.1083,458.048 13.4416,455.048 11,452.5C 9.88167,448.776 8.88167,445.109 8,441.5C 11.0825,445.4 13.4159,449.734 15,454.5C 15.6667,455.833 16.3333,455.833 17,454.5C 18,455.833 19,457.167 20,458.5C 18.7679,453.286 16.7679,448.286 14,443.5C 13.6667,443.833 13.3333,444.167 13,444.5C 11.8814,440.929 10.2147,437.596 8,434.5C 7.66667,430.167 7.33333,425.833 7,421.5C 4.07132,415.881 1.57132,410.215 -0.5,404.5C -0.5,310.167 -0.5,215.833 -0.5,121.5C 6.14067,113.077 9.30733,103.41 9,92.5C 14.5796,84.2531 19.7463,75.7531 24.5,67C 24.3333,66.5 24.1667,66 24,65.5C 19.5661,70.1505 15.5661,75.1505 12,80.5C 12.3605,77.0757 13.3605,73.7423 15,70.5C 24.0515,60.2362 32.0515,48.5696 39,35.5C 49.6916,21.5793 62.1916,9.57927 76.5,-0.5 Z"/></g>
<g><path style="opacity:1" fill="#e2e2e2" d="M 442.5,-0.5 C 465.5,-0.5 488.5,-0.5 511.5,-0.5C 511.5,25.5 511.5,51.5 511.5,77.5C 508.865,74.921 506.699,71.921 505,68.5C 503.119,61.5258 500.453,54.8592 497,48.5C 480.454,30.1078 462.287,13.7744 442.5,-0.5 Z"/></g>
<g><path style="opacity:1" fill="#d7d7d7" d="M 434.5,511.5 C 392.5,511.5 350.5,511.5 308.5,511.5C 304.852,510.056 301.518,507.889 298.5,505C 299.833,504.333 299.833,503.667 298.5,503C 294.347,501.529 290.68,499.196 287.5,496C 286.5,495.333 285.5,495.333 284.5,496C 286.792,497.29 288.792,498.957 290.5,501C 290.167,501.167 289.833,501.333 289.5,501.5C 286.204,498.704 282.537,496.537 278.5,495C 277.228,493.693 276.228,492.193 275.5,490.5C 270.515,489.014 265.848,486.847 261.5,484C 256.572,482.582 251.572,482.249 246.5,483C 243.051,485.059 239.384,486.559 235.5,487.5C 231.669,490.594 228.003,493.927 224.5,497.5C 223.479,496.998 223.312,496.332 224,495.5C 228.634,491.963 228.467,491.129 223.5,493C 221.695,495.403 219.362,497.07 216.5,498C 216.311,500.295 214.977,502.295 212.5,504C 208.075,505.945 204.075,508.445 200.5,511.5C 167.833,511.5 135.167,511.5 102.5,511.5C 86.3283,502.83 73.1616,490.83 63,475.5C 62.6667,476.167 62.3333,476.833 62,477.5C 58.1834,472.034 55.0167,466.201 52.5,460C 54.9677,458.412 55.1343,456.578 53,454.5C 52.5814,455.672 51.9147,456.672 51,457.5C 49.1965,455.468 48.6965,453.301 49.5,451C 45.2913,440.312 41.958,429.312 39.5,418C 39.9602,416.699 40.2935,415.366 40.5,414C 40.2618,402.235 37.7618,391.735 33,382.5C 32.7578,375.804 32.2578,369.138 31.5,362.5C 31.5108,296.813 31.5108,231.147 31.5,165.5C 32.6519,157.872 33.6519,150.206 34.5,142.5C 36.7898,137.679 38.6232,132.679 40,127.5C 41.4751,108.027 46.9751,89.0274 56.5,70.5C 56.2907,69.914 55.9574,69.414 55.5,69C 57.8333,66.6667 60.1667,64.3333 62.5,62C 62.1667,61.6667 61.8333,61.3333 61.5,61C 79.5594,32.1393 105.226,17.1393 138.5,16C 133.412,15.4273 128.412,15.9273 123.5,17.5C 122.833,17.3333 122.167,17.1667 121.5,17C 122.253,15.513 123.086,15.3463 124,16.5C 124.489,14.3956 125.655,14.0622 127.5,15.5C 149.123,10.2995 170.456,11.6328 191.5,19.5C 195.465,18.4701 199.465,18.3035 203.5,19C 213.234,23.8599 222.567,29.1932 231.5,35C 230.167,35.6667 230.167,36.3333 231.5,37C 235.681,38.5127 239.348,40.846 242.5,44C 243.167,44.6667 243.833,44.6667 244.5,44C 242.461,41.6255 240.128,39.6255 237.5,38C 238.5,37.3333 239.5,37.3333 240.5,38C 245.357,42.0047 250.024,46.0047 254.5,50C 261.127,52.889 267.96,55.389 275,57.5C 281.567,56.5883 287.734,54.5883 293.5,51.5C 294.262,50.3717 294.929,49.2051 295.5,48C 298.902,46.6001 301.736,44.4335 304,41.5C 304.5,42 305,42.5 305.5,43C 304.167,44.3333 302.833,45.6667 301.5,47C 302.5,47.6667 303.5,47.6667 304.5,47C 306.957,43.9416 309.957,41.6083 313.5,40C 312.833,39.6667 312.167,39.3333 311.5,39C 319.254,34.2534 326.754,29.0868 334,23.5C 336.665,23.7032 339.498,24.3699 342.5,25.5C 348.392,23.0548 354.392,20.8882 360.5,19C 379.999,15.159 399.332,16.159 418.5,22C 419.888,22.8893 419.722,23.3893 418,23.5C 406.168,19.2858 394.001,17.7858 381.5,19C 398.713,18.8422 415.047,22.5088 430.5,30C 441.535,38.3554 452.035,47.5221 462,57.5C 466.174,63.8455 469.841,70.5122 473,77.5C 473.333,76.5 473.667,75.5 474,74.5C 478.076,84.0666 481.742,93.7333 485,103.5C 487.901,117.707 489.901,132.04 491,146.5C 492.667,150.5 494.333,154.5 496,158.5C 496.183,179.879 497.017,201.213 498.5,222.5C 498.185,232.016 497.518,239.849 496.5,246C 497.823,266.5 497.823,287 496.5,307.5C 497.595,313.145 498.262,320.812 498.5,330.5C 498.538,341.224 497.871,351.89 496.5,362.5C 496.518,366.084 496.852,369.584 497.5,373C 496.16,380.394 495.327,387.894 495,395.5C 492.216,400.517 490.216,405.85 489,411.5C 487.433,431.599 481.6,451.099 471.5,470C 471.833,470.333 472.167,470.667 472.5,471C 469.747,474.504 468.58,474.338 469,470.5C 467.623,472.754 466.123,474.92 464.5,477C 465.449,477.617 466.282,477.451 467,476.5C 459.557,491.117 448.724,502.784 434.5,511.5 Z"/></g>
<g><path style="opacity:1" fill="#d1d1d1" d="M 159.5,32.5 C 166.873,33.3407 174.206,34.5074 181.5,36C 190.659,39.2858 199.993,42.9525 209.5,47C 214.269,50.0552 218.936,53.3885 223.5,57C 224.449,57.6172 225.282,57.4506 226,56.5C 235.552,65.3895 245.052,74.2228 254.5,83C 258.124,82.9867 261.124,84.3201 263.5,87C 264.898,90.0293 267.565,92.3627 271.5,94C 276.023,94.3202 280.523,94.8202 285,95.5C 290.576,94.5428 294.076,91.7094 295.5,87C 297.126,87.1953 298.793,87.1953 300.5,87C 306.859,79.1563 313.359,71.323 320,63.5C 322.811,62.7772 325.311,60.9438 327.5,58C 328.833,57.6667 330.167,57.3333 331.5,57C 330.939,55.4345 331.606,54.1011 333.5,53C 337.359,51.12 341.193,49.2867 345,47.5C 346.016,48.6341 346.683,48.3008 347,46.5C 347.333,46.8333 347.667,47.1667 348,47.5C 350.27,44.5229 353.27,42.5229 357,41.5C 411.627,31.439 447.793,53.2724 465.5,107C 465.355,107.772 465.022,108.439 464.5,109C 466.754,110.054 467.087,111.554 465.5,113.5C 466.667,115.167 467.833,116.833 469,118.5C 469.795,124.447 470.962,130.28 472.5,136C 473.394,140.459 473.394,145.126 472.5,150C 473.302,156.257 474.468,162.424 476,168.5C 476.825,204.354 477.991,240.188 479.5,276C 478.25,313.168 476.75,350.335 475,387.5C 472.419,392.976 471.586,398.643 472.5,404.5C 470.558,414.118 468.392,423.785 466,433.5C 446.974,489.371 407.807,512.871 348.5,504C 343.928,502.596 340.095,500.763 337,498.5C 336.667,498.833 336.333,499.167 336,499.5C 330.571,497.204 325.071,495.037 319.5,493C 318.874,492.25 318.374,491.416 318,490.5C 317.667,490.833 317.333,491.167 317,491.5C 308.569,486.035 300.403,480.201 292.5,474C 286.145,468.643 280.145,462.977 274.5,457C 272.945,455.354 271.279,455.021 269.5,456C 266.5,453 263.5,450 260.5,447C 252.914,444.243 245.247,443.91 237.5,446C 235.023,447.705 233.689,449.705 233.5,452C 231.874,451.805 230.207,451.805 228.5,452C 222.018,459.983 215.351,467.816 208.5,475.5C 204.681,477.503 201.014,479.669 197.5,482C 193.001,487.79 187.001,491.124 179.5,492C 177.17,494.167 174.503,495.834 171.5,497C 113.614,507.475 77.2803,484.142 62.5,427C 61.6394,424.542 60.3061,422.376 58.5,420.5C 58.8333,419.167 59.1667,417.833 59.5,416.5C 56.6019,407.655 55.6019,398.655 56.5,389.5C 54.0402,379.733 52.5402,369.733 52,359.5C 50.5885,318.507 49.9218,277.507 50,236.5C 50.7071,208.11 52.0404,179.777 54,151.5C 54.5497,148.737 55.3831,146.07 56.5,143.5C 56.3918,142.558 56.0585,141.725 55.5,141C 57.5978,120.836 63.0978,101.669 72,83.5C 85.9101,55.9251 108.077,39.4251 138.5,34C 142.665,33.6882 146.832,33.8548 151,34.5C 154.15,34.6397 156.983,33.973 159.5,32.5 Z"/></g>
<g><path style="opacity:1" fill="#cbcbcb" d="M 164.5,47.5 C 176.205,48.6775 186.872,52.5109 196.5,59C 199.525,59.1335 202.192,60.1335 204.5,62C 202.699,62.3173 202.366,62.984 203.5,64C 206.215,65.9078 209.215,67.2411 212.5,68C 214.298,70.4725 216.632,72.1392 219.5,73C 220.5,74.6667 221.5,76.3333 222.5,78C 226.146,80.3024 229.813,82.6357 233.5,85C 238.892,91.8362 244.892,98.8362 251.5,106C 255.612,107.095 258.945,109.428 261.5,113C 259.423,113.192 257.423,113.692 255.5,114.5C 256.035,116.271 256.869,116.604 258,115.5C 259.512,116.257 260.846,117.257 262,118.5C 263.388,117.446 264.888,117.28 266.5,118C 273.362,124.72 281.696,127.887 291.5,127.5C 295.37,126.132 298.536,123.798 301,120.5C 303.112,122.922 305.112,122.922 307,120.5C 307.399,118.056 306.566,117.39 304.5,118.5C 303.692,118.192 303.025,117.692 302.5,117C 303.956,115.255 305.289,113.422 306.5,111.5C 307.086,111.709 307.586,112.043 308,112.5C 308.903,111.299 310.069,110.465 311.5,110C 310.366,108.984 310.699,108.317 312.5,108C 311.701,106.251 312.368,104.918 314.5,104C 314.5,103 314.5,102 314.5,101C 317.051,99.1997 319.385,97.1997 321.5,95C 320.044,94.5774 319.544,93.7441 320,92.5C 322.228,89.3603 324.895,86.6936 328,84.5C 329.51,81.1863 331.177,77.8529 333,74.5C 336.602,74.0033 339.102,71.6699 340.5,67.5C 359.221,51.8007 380.221,46.634 403.5,52C 404.833,52.6667 404.833,53.3333 403.5,54C 405.108,54.658 406.275,54.158 407,52.5C 418.023,56.5344 427.023,63.201 434,72.5C 440.042,85.2533 445.542,98.2533 450.5,111.5C 449.125,113.163 449.458,114.497 451.5,115.5C 451.291,116.086 450.957,116.586 450.5,117C 452.026,118.589 453.193,120.423 454,122.5C 455.501,129.508 457.001,136.508 458.5,143.5C 457.609,148.245 458.109,152.912 460,157.5C 460.194,165.247 461.027,172.914 462.5,180.5C 461.974,184.984 461.641,189.484 461.5,194C 462.147,221.385 463.48,248.718 465.5,276C 463.549,302.786 462.215,329.62 461.5,356.5C 462.895,364.113 462.562,371.613 460.5,379C 460.585,380.107 460.919,381.107 461.5,382C 460.119,389.39 458.452,396.39 456.5,403C 457.459,405.12 457.626,407.287 457,409.5C 455.161,414.691 453.828,420.024 453,425.5C 452.205,427.901 451.038,430.068 449.5,432C 449.833,432.333 450.167,432.667 450.5,433C 447.057,433.221 446.724,434.221 449.5,436C 446.456,436.359 446.122,437.026 448.5,438C 446.875,438.853 446.542,439.853 447.5,441C 442.523,451.407 436.689,461.907 430,472.5C 420.64,481.765 409.474,487.765 396.5,490.5C 387.466,491.556 378.299,491.556 369,490.5C 367,491.167 365,491.833 363,492.5C 355.25,490.821 347.083,488.321 338.5,485C 327.865,477.905 317.198,471.572 306.5,466C 305.542,464.853 305.875,463.853 307.5,463C 302.154,460.396 297.154,456.729 292.5,452C 292.833,451.667 293.167,451.333 293.5,451C 291.702,448.528 289.368,446.861 286.5,446C 283.167,442 279.833,438 276.5,434C 272.36,433.2 269.36,430.867 267.5,427C 268.5,426.667 269.5,426.333 270.5,426C 271.833,425.333 271.833,424.667 270.5,424C 268.021,423.106 265.688,422.773 263.5,423C 255.665,414.618 245.999,411.284 234.5,413C 232.04,414.458 229.873,416.291 228,418.5C 226.667,417.833 225.667,416.833 225,415.5C 223.933,416.943 222.766,418.276 221.5,419.5C 222.105,421.481 223.105,421.815 224.5,420.5C 224.831,423.537 223.664,426.203 221,428.5C 220.147,426.875 219.147,426.542 218,427.5C 217.556,431.413 215.89,435.079 213,438.5C 208.44,439.957 206.773,442.957 208,447.5C 206.899,449.394 205.566,450.061 204,449.5C 203.383,450.449 203.549,451.282 204.5,452C 202.91,453.046 201.41,454.213 200,455.5C 199.383,456.449 199.549,457.282 200.5,458C 198.651,459.093 196.984,460.426 195.5,462C 195.833,462.333 196.167,462.667 196.5,463C 195.051,464.117 193.384,464.784 191.5,465C 191.833,465.333 192.167,465.667 192.5,466C 189.835,468.082 187.669,470.582 186,473.5C 185.667,473.167 185.333,472.833 185,472.5C 173.556,483.655 160.056,489.321 144.5,489.5C 139.15,489.183 133.816,488.683 128.5,488C 126.559,487.696 124.893,486.863 123.5,485.5C 121.049,486.996 119.216,486.329 118,483.5C 117,483.833 116,484.167 115,484.5C 112.114,482.366 109.447,480.032 107,477.5C 105.927,478.28 104.76,478.113 103.5,477C 99.1034,471.984 94.9367,466.817 91,461.5C 87.9762,452.918 84.4762,444.585 80.5,436.5C 80.8333,435.833 81.1667,435.167 81.5,434.5C 80.8333,434.167 80.1667,433.833 79.5,433.5C 80.6613,431.776 80.4947,430.11 79,428.5C 78.3457,429.696 77.8457,429.696 77.5,428.5C 77.9767,427.522 78.6433,426.689 79.5,426C 76.8532,425.685 76.1865,424.518 77.5,422.5C 77.1543,421.304 76.6543,421.304 76,422.5C 72.76,411.175 70.9267,399.841 70.5,388.5C 69.3995,386.358 68.3995,384.192 67.5,382C 68.9213,376.8 68.7546,371.633 67,366.5C 66.9516,332.428 65.785,298.428 63.5,264.5C 65.6675,225.882 67.1675,187.549 68,149.5C 68.3036,147.559 69.1369,145.893 70.5,144.5C 69.1451,143.325 69.3117,142.325 71,141.5C 71.8867,126.566 75.3867,113.233 81.5,101.5C 81.2907,100.914 80.9574,100.414 80.5,100C 85.7671,87.9627 91.9338,76.4627 99,65.5C 109.62,55.918 122.12,50.418 136.5,49C 146.009,48.8299 155.342,48.3299 164.5,47.5 Z"/></g>
<g><path style="opacity:1" fill="#c5c4c4" d="M 133.5,53.5 C 139.84,54.5849 146.173,54.5849 152.5,53.5C 160.134,53.5975 167.467,55.2641 174.5,58.5C 177.161,57.9052 179.328,58.9052 181,61.5C 182.016,60.3659 182.683,60.6992 183,62.5C 185.036,61.0491 186.869,61.5491 188.5,64C 188.167,64.3333 187.833,64.6667 187.5,65C 190.801,68.8656 194.801,70.5323 199.5,70C 200.833,70.6667 200.833,71.3333 199.5,72C 201.933,73.1297 204.266,74.2964 206.5,75.5C 206.67,76.8221 206.337,77.9887 205.5,79C 210.104,82.7024 214.771,85.7024 219.5,88C 215.608,88.1307 214.775,89.6307 217,92.5C 218.441,93.87 220.108,94.87 222,95.5C 228.717,104.128 235.051,112.461 241,120.5C 241.914,119.346 242.747,119.513 243.5,121C 242.549,121.718 242.383,122.551 243,123.5C 246.165,124.289 248.665,126.455 250.5,130C 250.167,130.333 249.833,130.667 249.5,131C 251.679,131.442 252.345,132.442 251.5,134C 253.349,135.093 255.016,136.426 256.5,138C 256.167,138.333 255.833,138.667 255.5,139C 256.833,139.667 258.167,139.667 259.5,139C 257.671,137.887 256.837,136.387 257,134.5C 261.362,138.362 265.195,142.696 268.5,147.5C 267.369,148.604 266.535,148.271 266,146.5C 265.212,148.165 264.878,149.831 265,151.5C 265.333,151.167 265.667,150.833 266,150.5C 267.816,152.441 269.816,153.108 272,152.5C 275.946,156.445 280.446,159.611 285.5,162C 292.661,164.609 299.328,163.775 305.5,159.5C 307.477,160.188 309.477,159.855 311.5,158.5C 311.467,157.011 310.967,155.678 310,154.5C 308.703,155.784 307.536,155.617 306.5,154C 307.672,153.581 308.672,152.915 309.5,152C 309.5,151 309.5,150 309.5,149C 312.356,145.802 314.856,142.302 317,138.5C 316.903,141.296 316.07,143.963 314.5,146.5C 315.602,146.557 316.935,146.723 318.5,147C 315.972,145.684 315.972,144.517 318.5,143.5C 318.291,142.914 317.957,142.414 317.5,142C 319.068,139.696 320.235,137.196 321,134.5C 322,134.167 323,133.833 324,133.5C 325.916,129.151 326.916,124.817 327,120.5C 327.318,118.939 328.151,117.772 329.5,117C 329.167,116.667 328.833,116.333 328.5,116C 330.23,112.148 331.063,107.982 331,103.5C 333.008,102.236 334.175,100.403 334.5,98C 331.837,95.6433 332.004,93.4767 335,91.5C 336.666,92.3402 336.833,91.8402 335.5,90C 337.372,85.7434 339.539,81.2434 342,76.5C 342.667,75.1667 343.333,75.1667 344,76.5C 349.464,66.9112 357.964,60.4112 369.5,57C 371.847,56.5639 374.181,56.0639 376.5,55.5C 382.828,55.501 389.161,55.501 395.5,55.5C 400.235,56.8081 405.235,58.3081 410.5,60C 422.329,65.5553 430.996,75.222 436.5,89C 436.766,91.5989 436.766,94.2656 436.5,97C 437.614,98.4493 438.614,99.7827 439.5,101C 439.757,102.371 439.423,103.871 438.5,105.5C 440.598,109.55 441.932,113.883 442.5,118.5C 442.45,123.99 442.45,129.49 442.5,135C 444.371,138.303 445.704,141.803 446.5,145.5C 446.167,146.5 445.833,147.5 445.5,148.5C 444.682,145.893 444.182,143.226 444,140.5C 443.691,141.766 443.191,142.933 442.5,144C 443.303,148.414 443.803,152.914 444,157.5C 444.333,158.167 444.667,158.833 445,159.5C 445.333,157.833 445.667,156.167 446,154.5C 446.335,159.167 446.168,163.834 445.5,168.5C 445.746,172.903 446.413,177.237 447.5,181.5C 447.167,184.167 446.833,186.833 446.5,189.5C 447.386,234.745 448.053,279.911 448.5,325C 446.827,344.77 445.994,364.603 446,384.5C 444.238,390.577 443.071,396.744 442.5,403C 443.126,403.75 443.626,404.584 444,405.5C 444.14,402.957 444.806,400.623 446,398.5C 446.968,402.902 446.135,406.902 443.5,410.5C 443.57,411.772 443.903,412.938 444.5,414C 442.246,415.054 441.913,416.554 443.5,418.5C 442.96,419.748 442.293,420.915 441.5,422C 442.673,427.493 441.673,432.66 438.5,437.5C 437.743,458.121 426.41,473.288 404.5,483C 400.526,483.996 396.526,484.829 392.5,485.5C 391.158,484.098 390.324,484.431 390,486.5C 389.612,485.572 388.945,484.905 388,484.5C 384.513,485.213 381.013,485.879 377.5,486.5C 376.353,486.182 375.519,485.516 375,484.5C 370.613,485.488 366.447,485.488 362.5,484.5C 360.912,483.99 359.745,482.99 359,481.5C 358.667,481.833 358.333,482.167 358,482.5C 352.868,481.651 347.868,479.651 343,476.5C 338.575,473.758 334.075,470.258 329.5,466C 326.576,465.874 323.909,464.541 321.5,462C 322.167,461.667 322.833,461.333 323.5,461C 317.306,457.83 313.139,453.33 311,447.5C 309.102,445.546 307.102,444.546 305,444.5C 302.971,441.971 301.138,439.304 299.5,436.5C 299.709,435.914 300.043,435.414 300.5,435C 297.247,432.631 294.247,430.631 291.5,429C 292.167,428.333 292.833,427.667 293.5,427C 290.833,424.413 288.167,421.746 285.5,419C 285.833,418.667 286.167,418.333 286.5,418C 282.314,415.121 278.981,411.454 276.5,407C 274.687,406.386 274.353,406.719 275.5,408C 275,408.5 274.5,409 274,409.5C 269.221,403.352 264.054,397.518 258.5,392C 260.207,391.805 261.874,391.805 263.5,392C 257.469,386.976 251.136,382.31 244.5,378C 237.476,374.315 230.809,374.815 224.5,379.5C 223.707,378.645 224.04,377.811 225.5,377C 227.717,375.725 230.051,374.725 232.5,374C 231.833,373.833 231.167,373.667 230.5,373.5C 225.231,376.06 220.564,378.893 216.5,382C 217.333,382.833 218.167,383.667 219,384.5C 219.893,383.289 220.726,383.289 221.5,384.5C 218.532,389.964 215.366,395.297 212,400.5C 212.097,397.704 212.93,395.037 214.5,392.5C 213.579,390.185 212.246,390.018 210.5,392C 211.584,394.19 210.917,395.856 208.5,397C 209.167,397.667 209.833,398.333 210.5,399C 209.283,400.648 208.45,402.481 208,404.5C 207,404.833 206,405.167 205,405.5C 204.025,408.76 202.858,411.927 201.5,415C 201.421,416.907 201.754,418.907 202.5,421C 201.5,421.333 200.5,421.667 199.5,422C 199.833,422.333 200.167,422.667 200.5,423C 199.572,423.388 198.905,424.055 198.5,425C 197.427,430.74 195.76,436.24 193.5,441.5C 197.54,444.523 196.873,446.189 191.5,446.5C 191.286,448.144 191.62,449.644 192.5,451C 191.5,452 190.5,453 189.5,454C 189.957,454.414 190.291,454.914 190.5,455.5C 189.395,456.892 188.061,458.059 186.5,459C 186.957,459.414 187.291,459.914 187.5,460.5C 185.053,463.054 182.72,465.554 180.5,468C 180.833,468.333 181.167,468.667 181.5,469C 166.709,482.239 149.043,486.906 128.5,483C 110.484,478.628 98.817,467.962 93.5,451C 90.9903,447.565 90.3236,444.232 91.5,441C 90.9777,440.05 90.311,439.216 89.5,438.5C 89.7093,437.914 90.0426,437.414 90.5,437C 89.7117,433.924 89.2117,430.758 89,427.5C 88.6667,428.833 88.3333,430.167 88,431.5C 85.6737,421.901 84.6737,412.235 85,402.5C 84.6667,403.833 84.3333,405.167 84,406.5C 82.1498,399.593 81.4832,392.593 82,385.5C 82.3457,388.576 83.0124,391.576 84,394.5C 85.6258,390.433 85.6258,386.433 84,382.5C 83.6667,383.167 83.3333,383.833 83,384.5C 82.6667,378.167 82.3333,371.833 82,365.5C 81.6667,369.167 81.3333,372.833 81,376.5C 80.8333,374.333 80.6667,372.167 80.5,370C 80.4223,325.172 80.7557,280.339 81.5,235.5C 81.1667,230.833 80.8333,226.167 80.5,221.5C 79.7022,223.078 79.2022,224.744 79,226.5C 78.0319,218.686 78.6986,211.02 81,203.5C 81.1764,190.258 81.6764,177.092 82.5,164C 81.8841,162.6 81.5507,161.1 81.5,159.5C 82.0089,153.786 83.3422,148.286 85.5,143C 84.5464,139.756 84.5464,136.756 85.5,134C 85.1667,133.833 84.8333,133.667 84.5,133.5C 83.5604,136.803 82.727,140.136 82,143.5C 81.7118,140.47 81.5451,137.636 81.5,135C 82.9563,132.734 83.7896,130.234 84,127.5C 84.3333,128.5 84.6667,129.5 85,130.5C 84.3439,125.933 84.8439,121.433 86.5,117C 85.1304,114.167 85.4637,111.5 87.5,109C 86.7286,107.002 87.3952,105.335 89.5,104C 88.9034,102.372 89.2367,100.705 90.5,99C 90.3267,96.5931 90.3267,94.2598 90.5,92C 91.1667,91.6667 91.8333,91.3333 92.5,91C 91.1669,89.1598 91.3335,88.6598 93,89.5C 94.8524,87.7703 94.6857,86.6036 92.5,86C 99.851,70.8199 111.518,60.4866 127.5,55C 129.235,54.3486 130.902,54.5153 132.5,55.5C 133.298,55.0431 133.631,54.3764 133.5,53.5 Z"/></g>
<g><path style="opacity:1" fill="#bfbebe" d="M 139.5,56.5 C 150.349,56.3872 160.682,57.7206 170.5,60.5C 174.334,61.4022 178.334,62.9022 182.5,65C 187.642,68.6418 192.642,72.4751 197.5,76.5C 208.081,88.9102 218.081,101.744 227.5,115C 229.841,118.289 232.674,121.789 236,125.5C 245.321,139.822 254.821,153.989 264.5,168C 264.167,168.333 263.833,168.667 263.5,169C 268.73,170.95 272.563,174.45 275,179.5C 281.143,184.986 287.81,189.653 295,193.5C 301.416,193.509 307.249,191.676 312.5,188C 314.035,185.132 316.201,182.965 319,181.5C 319.914,182.654 320.747,182.487 321.5,181C 320.61,177.953 321.776,175.786 325,174.5C 325.768,170.195 327.268,166.195 329.5,162.5C 328.509,161.335 327.509,160.168 326.5,159C 327.148,157.56 327.481,156.06 327.5,154.5C 328.5,154.5 329.5,154.5 330.5,154.5C 329.823,144.987 331.156,135.654 334.5,126.5C 334.43,125.228 334.097,124.062 333.5,123C 335.779,112.973 337.613,103.139 339,93.5C 345.905,70.7157 361.239,58.7157 385,57.5C 413.167,58.5689 429.834,72.9022 435,100.5C 437.458,119.891 438.625,139.225 438.5,158.5C 439.31,178.142 439.81,197.809 440,217.5C 440.333,209.5 440.667,201.5 441,193.5C 441.715,255.863 441.381,318.196 440,380.5C 440.556,378.405 441.056,378.238 441.5,380C 439.817,385.676 438.817,391.509 438.5,397.5C 438.608,398.442 438.941,399.275 439.5,400C 437.955,401.822 437.288,403.989 437.5,406.5C 437.916,412.96 437.916,419.293 437.5,425.5C 436.007,432.428 434.84,439.428 434,446.5C 429.082,465.084 417.249,476.584 398.5,481C 380.556,484.231 363.223,482.231 346.5,475C 330.511,463.849 317.511,450.015 307.5,433.5C 304.446,431.327 302.113,427.994 300.5,423.5C 297.555,419.933 294.389,416.6 291,413.5C 288.707,410.544 287.373,407.21 287,403.5C 286.667,404.167 286.333,404.833 286,405.5C 285.691,404.234 285.191,403.067 284.5,402C 284.833,401.667 285.167,401.333 285.5,401C 281.215,399.271 278.715,396.105 278,391.5C 268.306,376.803 256.806,363.636 243.5,352C 228.865,342.875 217.032,345.708 208,360.5C 207.667,360.167 207.333,359.833 207,359.5C 203.939,363.29 202.272,367.623 202,372.5C 201.365,373.966 200.531,375.3 199.5,376.5C 201.576,378.937 201.909,381.603 200.5,384.5C 199.319,382.865 199.319,381.198 200.5,379.5C 200.154,378.304 199.654,378.304 199,379.5C 198.764,381.764 198.264,383.931 197.5,386C 198.022,386.561 198.355,387.228 198.5,388C 197.833,388.667 197.167,389.333 196.5,390C 196.905,390.945 197.572,391.612 198.5,392C 194.274,409.282 191.607,426.615 190.5,444C 188.218,447.512 186.718,451.345 186,455.5C 177.514,471.422 164.181,480.088 146,481.5C 127.84,482.859 112.84,476.192 101,461.5C 96.4481,452.517 93.9481,443.85 93.5,435.5C 91.4724,415.372 89.8057,395.206 88.5,375C 89.0367,373.208 89.3701,371.375 89.5,369.5C 88.7182,350.847 88.2182,332.181 88,313.5C 87.6667,324.5 87.3333,335.5 87,346.5C 86.2494,286.494 86.5827,226.494 88,166.5C 88.3441,155.296 89.1774,144.129 90.5,133C 89.5379,128.535 89.8713,124.035 91.5,119.5C 90.8848,103.326 95.0515,87.9926 104,73.5C 113.659,63.1226 125.492,57.456 139.5,56.5 Z"/></g>
<g><path style="opacity:1" fill="#d9dad9" d="M 499.5,214.5 C 500.29,215.609 500.79,216.942 501,218.5C 501.167,237.667 501.333,256.833 501.5,276C 501.638,296.874 501.138,317.707 500,338.5C 500.81,297.167 500.644,255.833 499.5,214.5 Z"/></g>
<g><path style="opacity:1" fill="#b9b8b8" d="M 145.5,58.5 C 176.894,60.331 199.728,75.6643 214,104.5C 214.333,104.167 214.667,103.833 215,103.5C 219.72,112.215 225.22,120.381 231.5,128C 231.5,129 231.5,130 231.5,131C 232.253,132.487 233.086,132.654 234,131.5C 234.293,133.925 235.459,135.758 237.5,137C 237.167,137.333 236.833,137.667 236.5,138C 239.754,141.271 241.92,144.771 243,148.5C 246.058,151.173 248.892,154.673 251.5,159C 260.005,176.04 271.171,192.207 285,207.5C 285.333,206.833 285.667,206.167 286,205.5C 287.167,207.333 288.333,209.167 289.5,211C 289.167,211.333 288.833,211.667 288.5,212C 290.107,213.727 291.774,215.561 293.5,217.5C 297.036,218.4 300.703,219.733 304.5,221.5C 308.54,221.199 312.373,220.199 316,218.5C 317,219.167 318,219.833 319,220.5C 324.043,217.154 327.71,213.154 330,208.5C 330.72,206.888 330.554,205.388 329.5,204C 332.376,199.656 333.043,194.99 331.5,190C 332.167,188.667 333.167,187.667 334.5,187C 332.496,184.159 331.996,180.993 333,177.5C 334.806,173.875 335.972,170.041 336.5,166C 336.167,161.667 335.833,157.333 335.5,153C 336.167,152.667 336.833,152.333 337.5,152C 337.108,142.961 337.108,133.795 337.5,124.5C 338.167,124.167 338.833,123.833 339.5,123.5C 338.08,120.012 338.414,116.678 340.5,113.5C 339.975,112.808 339.308,112.308 338.5,112C 340.291,104.974 341.791,97.807 343,90.5C 350.235,69.8647 364.902,59.8647 387,60.5C 408.395,60.1009 422.561,69.9342 429.5,90C 432.486,98.6192 433.486,107.119 432.5,115.5C 434.128,129.445 435.461,143.445 436.5,157.5C 436.213,235.78 436.213,313.78 436.5,391.5C 436.213,393.486 435.547,395.32 434.5,397C 435.037,398.792 435.37,400.625 435.5,402.5C 435.065,411.782 434.065,420.949 432.5,430C 434.01,449.29 426.343,464.29 409.5,475C 390.669,481.88 372.002,481.88 353.5,475C 346.607,470.96 339.94,466.626 333.5,462C 325.191,452.693 317.858,443.193 311.5,433.5C 302.852,419.686 293.852,406.186 284.5,393C 285.451,392.282 285.617,391.449 285,390.5C 280.881,387.057 277.548,383.057 275,378.5C 274.027,376.608 273.36,374.608 273,372.5C 265.021,360.421 257.188,348.755 249.5,337.5C 246.617,336.415 244.617,334.415 243.5,331.5C 242.914,331.709 242.414,332.043 242,332.5C 240.833,331.333 239.667,330.167 238.5,329C 238.833,328.667 239.167,328.333 239.5,328C 236.96,325.795 234.793,323.295 233,320.5C 232.439,321.022 231.772,321.355 231,321.5C 228.808,319.538 226.141,318.538 223,318.5C 217.809,319.696 212.642,320.196 207.5,320C 204.131,322.365 201.964,325.532 201,329.5C 200.333,328.167 199.667,328.167 199,329.5C 197.643,336.072 196.477,342.739 195.5,349.5C 195.59,351.964 196.257,354.13 197.5,356C 195.915,360.313 195.081,364.813 195,369.5C 194.667,365.833 194.333,362.167 194,358.5C 193.53,363.769 192.697,368.936 191.5,374C 193.433,377.509 193.433,380.842 191.5,384C 191.477,387.445 191.81,390.945 192.5,394.5C 191.389,395.611 190.722,396.945 190.5,398.5C 191.734,402.8 191.401,407.134 189.5,411.5C 189.972,422.2 189.138,432.867 187,443.5C 181.284,467.205 165.784,479.205 140.5,479.5C 112.319,477.214 97.3192,461.881 95.5,433.5C 96.3189,431.016 96.6522,428.682 96.5,426.5C 95.0351,421.062 94.0351,415.562 93.5,410C 94.3551,403.464 94.6884,396.797 94.5,390C 93.3064,385.097 92.6397,380.097 92.5,375C 92.5145,370.585 92.8478,366.252 93.5,362C 92.6367,347.904 91.97,333.738 91.5,319.5C 91.7481,278.187 91.7481,236.854 91.5,195.5C 91.4273,180.625 92.094,165.792 93.5,151C 92.936,147.145 92.6027,143.312 92.5,139.5C 92.722,137.945 93.3887,136.611 94.5,135.5C 93.4829,126.797 93.8163,117.964 95.5,109C 96.0119,76.6524 112.679,59.819 145.5,58.5 Z"/></g>
<g><path style="opacity:1" fill="#b3b2b2" d="M 399.5,66.5 C 389.088,66.0738 378.754,66.5738 368.5,68C 360.593,71.7387 354.927,77.572 351.5,85.5C 350.833,86.5 350.167,87.5 349.5,88.5C 349.631,87.7611 349.464,87.0944 349,86.5C 345.674,96.4155 344.508,106.582 345.5,117C 343.232,121.737 342.899,126.404 344.5,131C 343.833,138 343.167,145 342.5,152C 342.25,157.878 342.583,163.544 343.5,169C 342.727,180.102 342.06,191.268 341.5,202.5C 341.605,222.736 339.438,243.069 335,263.5C 334.535,264.931 333.701,266.097 332.5,267C 333.308,267.308 333.975,267.808 334.5,268.5C 332.106,271.053 329.939,273.719 328,276.5C 323.412,273.589 319.079,270.255 315,266.5C 298.096,245.819 283.429,224.819 271,203.5C 268.5,200.333 266,197.167 263.5,194C 263.5,193 263.5,192 263.5,191C 262.672,190.085 261.672,189.419 260.5,189C 260.833,188.667 261.167,188.333 261.5,188C 244.604,161.539 227.437,134.372 210,106.5C 203.584,96.182 196.084,86.682 187.5,78C 185.939,77.8119 185.272,78.6453 185.5,80.5C 177.253,73.2137 167.586,68.8804 156.5,67.5C 146.675,66.3417 136.675,66.1751 126.5,67C 125.944,67.3826 125.611,67.8826 125.5,68.5C 115.643,71.3547 108.976,77.6881 105.5,87.5C 105.167,87.5 104.833,87.5 104.5,87.5C 102.63,89.8897 101.463,93.2231 101,97.5C 99.0764,119.345 97.9097,141.178 97.5,163C 97.8305,242.826 98.4971,322.326 99.5,401.5C 99.3336,410.506 99.5002,419.506 100,428.5C 100.085,436.065 101.252,442.732 103.5,448.5C 104.167,449.167 104.833,449.833 105.5,450.5C 107.91,459.247 113.243,465.581 121.5,469.5C 123.385,471.311 125.719,472.478 128.5,473C 136.012,473.822 143.345,473.655 150.5,472.5C 166.769,470.064 176.269,460.731 179,444.5C 179.5,387.501 179.667,330.501 179.5,273.5C 179.833,273.5 180.167,273.5 180.5,273.5C 180.5,293.167 180.5,312.833 180.5,332.5C 180.5,362.167 180.5,391.833 180.5,421.5C 180.334,430.506 180.5,439.506 181,448.5C 182.906,441.919 183.406,435.586 182.5,429.5C 183.167,427.5 183.833,425.5 184.5,423.5C 184.535,419.334 184.202,415.167 183.5,411C 185.078,395.597 186.078,380.097 186.5,364.5C 186.456,361.445 186.123,358.445 185.5,355.5C 186.302,344.038 186.968,332.538 187.5,321C 187.628,318.293 188.295,315.793 189.5,313.5C 188.833,313.167 188.167,312.833 187.5,312.5C 187.446,309.244 188.112,305.911 189.5,302.5C 189.167,301.833 188.833,301.167 188.5,300.5C 189.446,293.42 191.112,286.253 193.5,279C 193.043,278.586 192.709,278.086 192.5,277.5C 193.297,275.868 194.297,274.368 195.5,273C 195.355,272.228 195.022,271.561 194.5,271C 196.317,269.2 197.484,267.034 198,264.5C 199,263.833 200,263.167 201,262.5C 205.011,265.712 209.344,269.378 214,273.5C 220.727,281.666 227.56,290.499 234.5,300C 234.167,300.333 233.833,300.667 233.5,301C 235.873,302.98 238.039,305.147 240,307.5C 258.912,337.651 277.578,367.985 296,398.5C 303.237,410.08 310.903,421.413 319,432.5C 326.806,450.308 339.973,463.475 358.5,472C 369.959,475.264 381.626,476.264 393.5,475C 388.649,474.826 383.982,474.326 379.5,473.5C 385.69,473.823 391.69,473.49 397.5,472.5C 410.912,469.589 419.746,461.589 424,448.5C 424.667,329.5 424.667,210.5 424,91.5C 422.636,84.2255 419.136,78.2255 413.5,73.5C 410.843,70.6171 411.51,69.9504 415.5,71.5C 423.662,79.7817 428.495,89.7817 430,101.5C 431.041,116.816 431.708,132.149 432,147.5C 433.509,227.505 433.843,307.505 433,387.5C 432.235,405.18 431.235,422.847 430,440.5C 426.311,460.04 414.811,472.207 395.5,477C 363.488,480.823 338.822,469.323 321.5,442.5C 295.531,401.366 269.364,360.366 243,319.5C 240.555,317.07 238.555,314.404 237,311.5C 234.821,308.989 232.321,306.822 229.5,305C 229.833,304.667 230.167,304.333 230.5,304C 228.668,303.252 227.001,302.252 225.5,301C 226.641,300.259 226.641,299.425 225.5,298.5C 221.888,297.453 218.221,296.62 214.5,296C 214.833,295.667 215.167,295.333 215.5,295C 213.833,294.667 212.167,294.333 210.5,294C 214.386,293.421 214.386,292.588 210.5,291.5C 207.875,292.764 205.208,293.931 202.5,295C 201.167,296 201.167,297 202.5,298C 200.53,300.316 198.196,302.149 195.5,303.5C 195.709,304.086 196.043,304.586 196.5,305C 194.562,307.47 193.396,310.304 193,313.5C 192.782,316.426 192.282,319.26 191.5,322C 192.167,323 192.833,324 193.5,325C 190.971,330.091 190.304,335.425 191.5,341C 189.476,353.129 188.81,365.295 189.5,377.5C 188.128,385.861 187.128,394.195 186.5,402.5C 186.833,403.167 187.167,403.833 187.5,404.5C 186.637,416.468 185.804,428.468 185,440.5C 181.356,459.136 170.522,470.969 152.5,476C 136.72,479.3 122.553,475.8 110,465.5C 109.517,464.552 109.351,463.552 109.5,462.5C 108.325,462.719 107.325,462.386 106.5,461.5C 102.695,454.994 100.195,447.994 99,440.5C 97.2863,415.35 96.1196,390.184 95.5,365C 95.6204,294.81 95.6204,224.643 95.5,154.5C 96.1468,134.816 97.3134,115.149 99,95.5C 101.96,81.201 110.127,71.0343 123.5,65C 151.27,56.4454 175.27,62.2787 195.5,82.5C 200.402,88.7692 205.236,95.1026 210,101.5C 230.364,133.854 250.698,166.187 271,198.5C 280.072,210.887 289.072,223.22 298,235.5C 299.763,236.944 301.763,237.944 304,238.5C 304.49,239.793 304.657,241.127 304.5,242.5C 309.45,242.134 313.783,242.968 317.5,245C 316.692,245.308 316.025,245.808 315.5,246.5C 319.762,247.469 323.595,246.469 327,243.5C 326.377,241.015 327.377,239.015 330,237.5C 330.49,236.207 330.657,234.873 330.5,233.5C 331.5,233.5 332.5,233.5 333.5,233.5C 334.683,228.002 335.683,222.502 336.5,217C 335.186,214.043 335.52,211.21 337.5,208.5C 337.494,205.676 337.161,202.676 336.5,199.5C 338.626,187.728 339.293,175.895 338.5,164C 339.078,162.189 339.578,160.355 340,158.5C 340.795,137.464 342.129,116.464 344,95.5C 347.576,79.5928 357.076,69.0928 372.5,64C 382.064,62.0378 391.397,62.0378 400.5,64C 401.883,65.4609 401.549,66.2942 399.5,66.5 Z"/></g>
<g><path style="opacity:1" fill="#adabab" d="M 303.5,399.5 C 314.374,417.562 325.541,435.562 337,453.5C 342.206,460.209 348.706,465.209 356.5,468.5C 363.621,472.194 371.288,473.861 379.5,473.5C 383.982,474.326 388.649,474.826 393.5,475C 381.626,476.264 369.959,475.264 358.5,472C 339.973,463.475 326.806,450.308 319,432.5C 310.903,421.413 303.237,410.08 296,398.5C 277.578,367.985 258.912,337.651 240,307.5C 238.039,305.147 235.873,302.98 233.5,301C 233.833,300.667 234.167,300.333 234.5,300C 227.56,290.499 220.727,281.666 214,273.5C 209.344,269.378 205.011,265.712 201,262.5C 200,263.167 199,263.833 198,264.5C 197.484,267.034 196.317,269.2 194.5,271C 195.022,271.561 195.355,272.228 195.5,273C 194.297,274.368 193.297,275.868 192.5,277.5C 192.709,278.086 193.043,278.586 193.5,279C 191.112,286.253 189.446,293.42 188.5,300.5C 188.833,301.167 189.167,301.833 189.5,302.5C 188.112,305.911 187.446,309.244 187.5,312.5C 188.167,312.833 188.833,313.167 189.5,313.5C 188.295,315.793 187.628,318.293 187.5,321C 186.968,332.538 186.302,344.038 185.5,355.5C 186.123,358.445 186.456,361.445 186.5,364.5C 186.078,380.097 185.078,395.597 183.5,411C 184.202,415.167 184.535,419.334 184.5,423.5C 183.833,425.5 183.167,427.5 182.5,429.5C 183.406,435.586 182.906,441.919 181,448.5C 180.5,439.506 180.334,430.506 180.5,421.5C 181.261,417.818 181.928,413.985 182.5,410C 182.167,409 181.833,408 181.5,407C 182.407,386.151 183.407,365.317 184.5,344.5C 184.689,341.783 184.356,338.949 183.5,336C 184.304,330.194 184.97,324.361 185.5,318.5C 185.449,316.9 185.116,315.4 184.5,314C 185.74,299.871 187.074,285.704 188.5,271.5C 188.392,270.558 188.059,269.725 187.5,269C 189.32,266.395 189.986,263.728 189.5,261C 190.713,258.313 191.38,255.48 191.5,252.5C 190.448,252.649 189.448,252.483 188.5,252C 189.685,250.647 191.019,249.48 192.5,248.5C 191.975,247.808 191.308,247.308 190.5,247C 192.076,245.423 193.909,244.256 196,243.5C 200.17,246.013 202.837,249.68 204,254.5C 205.419,255.46 206.919,256.293 208.5,257C 207.346,257.914 207.513,258.747 209,259.5C 224.235,279.242 238.901,300.242 253,322.5C 269.271,349.39 285.771,376.057 302.5,402.5C 303.386,401.675 303.719,400.675 303.5,399.5 Z"/></g>
<g><path style="opacity:1" fill="#cecdcd" d="M 104.5,87.5 C 104.833,87.5 105.167,87.5 105.5,87.5C 104.169,208.507 104.169,329.507 105.5,450.5C 104.833,449.833 104.167,449.167 103.5,448.5C 103.5,331.167 103.5,213.833 103.5,96.5C 103.508,93.4552 103.841,90.4552 104.5,87.5 Z"/></g>
<g><path style="opacity:1" fill="#a9a6a6" d="M 102.5,111.5 C 102.5,214.167 102.5,316.833 102.5,419.5C 101.748,410.991 101.082,402.324 100.5,393.5C 100.391,309.857 100.558,226.19 101,142.5C 101.17,131.992 101.67,121.659 102.5,111.5 Z"/></g>
<g><path style="opacity:1" fill="#b0adad" d="M 103.5,96.5 C 103.5,213.833 103.5,331.167 103.5,448.5C 101.252,442.732 100.085,436.065 100,428.5C 99.5002,419.506 99.3336,410.506 99.5,401.5C 100.508,413.861 101.342,426.194 102,438.5C 102.5,432.175 102.666,425.842 102.5,419.5C 102.5,316.833 102.5,214.167 102.5,111.5C 102.179,106.305 102.513,101.305 103.5,96.5 Z"/></g>
<g><path style="opacity:1" fill="#adabab" d="M 425.5,417.5 C 427.008,415.829 427.341,413.996 426.5,412C 427.933,386.584 428.6,361.084 428.5,335.5C 428.301,269.914 427.801,204.247 427,138.5C 426.79,136.942 426.29,135.609 425.5,134.5C 425.333,120.829 425.5,107.163 426,93.5C 426.333,94.5 426.667,95.5 427,96.5C 427.815,105.862 428.648,115.195 429.5,124.5C 429.291,125.086 428.957,125.586 428.5,126C 429.167,139.333 429.833,152.667 430.5,166C 429.289,222.578 429.289,279.244 430.5,336C 430.614,365.082 429.948,394.082 428.5,423C 428.957,423.414 429.291,423.914 429.5,424.5C 427.633,429.337 427.3,434.004 428.5,438.5C 427.355,441.748 426.521,445.081 426,448.5C 425.5,438.172 425.334,427.839 425.5,417.5 Z"/></g>
<g><path style="opacity:1" fill="#a9a6a6" d="M 425.5,134.5 C 426.29,135.609 426.79,136.942 427,138.5C 427.801,204.247 428.301,269.914 428.5,335.5C 428.6,361.084 427.933,386.584 426.5,412C 427.341,413.996 427.008,415.829 425.5,417.5C 425.5,323.167 425.5,228.833 425.5,134.5 Z"/></g>
<g><path style="opacity:1" fill="#adabab" d="M 104.5,87.5 C 103.841,90.4552 103.508,93.4552 103.5,96.5C 102.513,101.305 102.179,106.305 102.5,111.5C 101.67,121.659 101.17,131.992 101,142.5C 100.558,226.19 100.391,309.857 100.5,393.5C 101.082,402.324 101.748,410.991 102.5,419.5C 102.666,425.842 102.5,432.175 102,438.5C 101.342,426.194 100.508,413.861 99.5,401.5C 98.4971,322.326 97.8305,242.826 97.5,163C 97.9097,141.178 99.0764,119.345 101,97.5C 101.463,93.2231 102.63,89.8897 104.5,87.5 Z"/></g>
<g><path style="opacity:1" fill="#d6d6d6" d="M 399.5,66.5 C 404.128,68.8139 408.795,71.1473 413.5,73.5C 419.136,78.2255 422.636,84.2255 424,91.5C 424.667,210.5 424.667,329.5 424,448.5C 419.746,461.589 410.912,469.589 397.5,472.5C 388.494,472.666 379.494,472.5 370.5,472C 365.993,470.107 361.327,468.941 356.5,468.5C 348.706,465.209 342.206,460.209 337,453.5C 325.541,435.562 314.374,417.562 303.5,399.5C 277.007,354.512 250.007,309.845 222.5,265.5C 218.863,258.549 214.863,251.882 210.5,245.5C 204.152,234.798 197.819,224.131 191.5,213.5C 188.528,207.878 185.195,202.545 181.5,197.5C 181.44,196.957 181.107,196.624 180.5,196.5C 179.5,222.158 179.167,247.825 179.5,273.5C 179.667,330.501 179.5,387.501 179,444.5C 176.269,460.731 166.769,470.064 150.5,472.5C 140.611,473.191 130.944,472.191 121.5,469.5C 113.243,465.581 107.91,459.247 105.5,450.5C 104.169,329.507 104.169,208.507 105.5,87.5C 108.976,77.6881 115.643,71.3547 125.5,68.5C 135.782,67.5478 146.115,67.2145 156.5,67.5C 167.586,68.8804 177.253,73.2137 185.5,80.5C 187.463,81.9599 189.296,83.6266 191,85.5C 199.696,99.6734 208.53,113.673 217.5,127.5C 244.667,173.84 272.334,219.84 300.5,265.5C 307.471,277.786 314.805,289.786 322.5,301.5C 327.346,310.537 332.679,319.204 338.5,327.5C 340.912,332.659 343.579,337.659 346.5,342.5C 347.209,343.404 348.209,343.737 349.5,343.5C 349.333,260.166 349.5,176.833 350,93.5C 350.822,90.8832 351.322,88.2165 351.5,85.5C 354.927,77.572 360.593,71.7387 368.5,68C 378.754,66.5738 389.088,66.0738 399.5,66.5 Z"/></g>
<g><path style="opacity:1" fill="#a29f9f" d="M 348.5,222.5 C 348.5,248.833 348.5,275.167 348.5,301.5C 347.671,294.011 347.171,286.344 347,278.5C 346.345,289.003 345.345,299.669 344,310.5C 341.901,315.871 338.734,316.704 334.5,313C 330.928,309.185 327.595,305.185 324.5,301C 323.563,300.308 322.897,300.475 322.5,301.5C 314.805,289.786 307.471,277.786 300.5,265.5C 300.964,262.304 302.464,262.304 305,265.5C 313.187,277.121 321.187,288.788 329,300.5C 331.45,303.626 334.45,305.959 338,307.5C 340.18,304.641 341.68,301.474 342.5,298C 341.643,294.201 341.309,290.201 341.5,286C 342.692,274.65 344.025,263.317 345.5,252C 344.009,249.978 344.342,248.312 346.5,247C 345.708,241.005 345.374,235.005 345.5,229C 346.289,220.869 346.789,212.702 347,204.5C 347.172,210.681 347.672,216.681 348.5,222.5 Z"/></g>
<g><path style="opacity:1" fill="#a7a5a5" d="M 348.5,111.5 C 348.5,148.5 348.5,185.5 348.5,222.5C 347.672,216.681 347.172,210.681 347,204.5C 346.789,212.702 346.289,220.869 345.5,229C 345.374,235.005 345.708,241.005 346.5,247C 344.342,248.312 344.009,249.978 345.5,252C 344.025,263.317 342.692,274.65 341.5,286C 341.309,290.201 341.643,294.201 342.5,298C 341.68,301.474 340.18,304.641 338,307.5C 334.45,305.959 331.45,303.626 329,300.5C 321.187,288.788 313.187,277.121 305,265.5C 302.464,262.304 300.964,262.304 300.5,265.5C 272.334,219.84 244.667,173.84 217.5,127.5C 218.892,126.478 220.225,126.811 221.5,128.5C 248.733,174.634 277.233,219.967 307,264.5C 311.853,270.682 317.019,276.515 322.5,282C 322.167,282.333 321.833,282.667 321.5,283C 324.327,286.659 327.66,289.826 331.5,292.5C 330.185,293.895 330.519,294.895 332.5,295.5C 332.911,294.738 333.077,293.738 333,292.5C 335.009,290.99 336.842,289.323 338.5,287.5C 336.022,285.564 336.022,283.564 338.5,281.5C 337.636,277.581 338.636,274.081 341.5,271C 340.572,270.612 339.905,269.945 339.5,269C 340.029,267.441 340.696,265.941 341.5,264.5C 340.667,259.143 341,253.809 342.5,248.5C 342.291,247.914 341.957,247.414 341.5,247C 342.926,236.937 343.759,226.77 344,216.5C 344.51,192.311 345.344,168.144 346.5,144C 346.355,142.774 346.022,141.607 345.5,140.5C 346.149,133.636 346.816,126.802 347.5,120C 347.279,118.201 346.946,116.368 346.5,114.5C 346.942,113.261 347.609,112.261 348.5,111.5 Z"/></g>
<g><path style="opacity:1" fill="#a7a5a5" d="M 222.5,265.5 C 250.007,309.845 277.007,354.512 303.5,399.5C 303.719,400.675 303.386,401.675 302.5,402.5C 285.771,376.057 269.271,349.39 253,322.5C 238.901,300.242 224.235,279.242 209,259.5C 207.513,258.747 207.346,257.914 208.5,257C 206.919,256.293 205.419,255.46 204,254.5C 202.837,249.68 200.17,246.013 196,243.5C 193.909,244.256 192.076,245.423 190.5,247C 191.308,247.308 191.975,247.808 192.5,248.5C 191.019,249.48 189.685,250.647 188.5,252C 189.448,252.483 190.448,252.649 191.5,252.5C 191.38,255.48 190.713,258.313 189.5,261C 189.986,263.728 189.32,266.395 187.5,269C 188.059,269.725 188.392,270.558 188.5,271.5C 187.074,285.704 185.74,299.871 184.5,314C 185.116,315.4 185.449,316.9 185.5,318.5C 184.97,324.361 184.304,330.194 183.5,336C 184.356,338.949 184.689,341.783 184.5,344.5C 183.407,365.317 182.407,386.151 181.5,407C 181.833,408 182.167,409 182.5,410C 181.928,413.985 181.261,417.818 180.5,421.5C 180.5,391.833 180.5,362.167 180.5,332.5C 181.302,331.048 181.802,329.382 182,327.5C 182.093,302.122 183.593,276.956 186.5,252C 184.895,248.763 185.228,245.763 187.5,243C 186.655,241.442 187.321,240.442 189.5,240C 188.328,239.581 187.328,238.915 186.5,238C 187.833,236.667 189.167,235.333 190.5,234C 190.167,233.667 189.833,233.333 189.5,233C 192.098,233.126 194.431,234.126 196.5,236C 198.455,238.326 200.455,240.659 202.5,243C 202.167,243.333 201.833,243.667 201.5,244C 202.579,244.956 203.745,245.789 205,246.5C 205.895,250.649 207.895,253.316 211,254.5C 213.542,259.715 217.209,264.049 222,267.5C 222.464,266.906 222.631,266.239 222.5,265.5 Z"/></g>
<g><path style="opacity:1" fill="#aba8a8" d="M 181.5,197.5 C 180.509,204.313 180.175,211.313 180.5,218.5C 180.5,232.833 180.5,247.167 180.5,261.5C 180.5,265.5 180.5,269.5 180.5,273.5C 180.167,273.5 179.833,273.5 179.5,273.5C 179.167,247.825 179.5,222.158 180.5,196.5C 181.107,196.624 181.44,196.957 181.5,197.5 Z"/></g>
<g><path style="opacity:1" fill="#a29f9f" d="M 210.5,245.5 C 214.863,251.882 218.863,258.549 222.5,265.5C 222.631,266.239 222.464,266.906 222,267.5C 217.209,264.049 213.542,259.715 211,254.5C 207.895,253.316 205.895,250.649 205,246.5C 203.745,245.789 202.579,244.956 201.5,244C 201.833,243.667 202.167,243.333 202.5,243C 200.455,240.659 198.455,238.326 196.5,236C 194.431,234.126 192.098,233.126 189.5,233C 189.833,233.333 190.167,233.667 190.5,234C 189.167,235.333 187.833,236.667 186.5,238C 187.328,238.915 188.328,239.581 189.5,240C 187.321,240.442 186.655,241.442 187.5,243C 185.228,245.763 184.895,248.763 186.5,252C 183.593,276.956 182.093,302.122 182,327.5C 181.802,329.382 181.302,331.048 180.5,332.5C 180.5,312.833 180.5,293.167 180.5,273.5C 180.5,269.5 180.5,265.5 180.5,261.5C 181.478,261.189 182.145,260.522 182.5,259.5C 181.637,255.815 181.303,251.981 181.5,248C 182.083,242.592 183.083,237.259 184.5,232C 184.167,231.667 183.833,231.333 183.5,231C 184.899,228.007 187.066,225.84 190,224.5C 191.225,224.862 192.391,225.362 193.5,226C 199.383,232.882 204.883,240.048 210,247.5C 210.464,246.906 210.631,246.239 210.5,245.5 Z"/></g>
<g><path style="opacity:1" fill="#9e9b9b" d="M 191.5,213.5 C 197.819,224.131 204.152,234.798 210.5,245.5C 210.631,246.239 210.464,246.906 210,247.5C 204.883,240.048 199.383,232.882 193.5,226C 192.391,225.362 191.225,224.862 190,224.5C 187.066,225.84 184.899,228.007 183.5,231C 183.833,231.333 184.167,231.667 184.5,232C 183.083,237.259 182.083,242.592 181.5,248C 181.303,251.981 181.637,255.815 182.5,259.5C 182.145,260.522 181.478,261.189 180.5,261.5C 180.5,247.167 180.5,232.833 180.5,218.5C 181.117,218.611 181.617,218.944 182,219.5C 184.382,216.709 187.215,215.709 190.5,216.5C 191.386,215.675 191.719,214.675 191.5,213.5 Z"/></g>
<g><path style="opacity:1" fill="#979393" d="M 181.5,197.5 C 185.195,202.545 188.528,207.878 191.5,213.5C 191.719,214.675 191.386,215.675 190.5,216.5C 187.215,215.709 184.382,216.709 182,219.5C 181.617,218.944 181.117,218.611 180.5,218.5C 180.175,211.313 180.509,204.313 181.5,197.5 Z"/></g>
<g><path style="opacity:1" fill="#adabab" d="M 349.5,88.5 C 348.566,96.111 348.233,103.778 348.5,111.5C 347.609,112.261 346.942,113.261 346.5,114.5C 346.946,116.368 347.279,118.201 347.5,120C 346.816,126.802 346.149,133.636 345.5,140.5C 346.022,141.607 346.355,142.774 346.5,144C 345.344,168.144 344.51,192.311 344,216.5C 343.759,226.77 342.926,236.937 341.5,247C 341.957,247.414 342.291,247.914 342.5,248.5C 341,253.809 340.667,259.143 341.5,264.5C 340.696,265.941 340.029,267.441 339.5,269C 339.905,269.945 340.572,270.612 341.5,271C 338.636,274.081 337.636,277.581 338.5,281.5C 336.022,283.564 336.022,285.564 338.5,287.5C 336.842,289.323 335.009,290.99 333,292.5C 333.077,293.738 332.911,294.738 332.5,295.5C 330.519,294.895 330.185,293.895 331.5,292.5C 327.66,289.826 324.327,286.659 321.5,283C 321.833,282.667 322.167,282.333 322.5,282C 317.019,276.515 311.853,270.682 307,264.5C 277.233,219.967 248.733,174.634 221.5,128.5C 220.225,126.811 218.892,126.478 217.5,127.5C 208.53,113.673 199.696,99.6734 191,85.5C 189.296,83.6266 187.463,81.9599 185.5,80.5C 185.272,78.6453 185.939,77.8119 187.5,78C 196.084,86.682 203.584,96.182 210,106.5C 227.437,134.372 244.604,161.539 261.5,188C 261.167,188.333 260.833,188.667 260.5,189C 261.672,189.419 262.672,190.085 263.5,191C 263.5,192 263.5,193 263.5,194C 266,197.167 268.5,200.333 271,203.5C 283.429,224.819 298.096,245.819 315,266.5C 319.079,270.255 323.412,273.589 328,276.5C 329.939,273.719 332.106,271.053 334.5,268.5C 333.975,267.808 333.308,267.308 332.5,267C 333.701,266.097 334.535,264.931 335,263.5C 339.438,243.069 341.605,222.736 341.5,202.5C 342.06,191.268 342.727,180.102 343.5,169C 342.583,163.544 342.25,157.878 342.5,152C 343.167,145 343.833,138 344.5,131C 342.899,126.404 343.232,121.737 345.5,117C 344.508,106.582 345.674,96.4155 349,86.5C 349.464,87.0944 349.631,87.7611 349.5,88.5 Z"/></g>
<g><path style="opacity:1" fill="#cac9c9" d="M 351.5,85.5 C 351.322,88.2165 350.822,90.8832 350,93.5C 349.5,176.833 349.333,260.166 349.5,343.5C 348.209,343.737 347.209,343.404 346.5,342.5C 348.461,335.913 349.128,328.913 348.5,321.5C 348.5,314.833 348.5,308.167 348.5,301.5C 348.5,275.167 348.5,248.833 348.5,222.5C 348.5,185.5 348.5,148.5 348.5,111.5C 348.233,103.778 348.566,96.111 349.5,88.5C 350.167,87.5 350.833,86.5 351.5,85.5 Z"/></g>
<g><path style="opacity:1" fill="#cdcccc" d="M 156.5,67.5 C 146.115,67.2145 135.782,67.5478 125.5,68.5C 125.611,67.8826 125.944,67.3826 126.5,67C 136.675,66.1751 146.675,66.3417 156.5,67.5 Z"/></g>
<g><path style="opacity:1" fill="#9d9a9a" d="M 348.5,301.5 C 348.5,308.167 348.5,314.833 348.5,321.5C 347.85,321.196 347.183,320.863 346.5,320.5C 345.785,322.778 344.618,324.111 343,324.5C 341.431,324.153 339.598,323.986 337.5,324C 338.337,325.011 338.67,326.178 338.5,327.5C 332.679,319.204 327.346,310.537 322.5,301.5C 322.897,300.475 323.563,300.308 324.5,301C 327.595,305.185 330.928,309.185 334.5,313C 338.734,316.704 341.901,315.871 344,310.5C 345.345,299.669 346.345,289.003 347,278.5C 347.171,286.344 347.671,294.011 348.5,301.5 Z"/></g>
<g><path style="opacity:1" fill="#979393" d="M 348.5,321.5 C 349.128,328.913 348.461,335.913 346.5,342.5C 343.579,337.659 340.912,332.659 338.5,327.5C 338.67,326.178 338.337,325.011 337.5,324C 339.598,323.986 341.431,324.153 343,324.5C 344.618,324.111 345.785,322.778 346.5,320.5C 347.183,320.863 347.85,321.196 348.5,321.5 Z"/></g>
<g><path style="opacity:1" fill="#e1e1e1" d="M -0.5,404.5 C 1.57132,410.215 4.07132,415.881 7,421.5C 7.33333,425.833 7.66667,430.167 8,434.5C 10.2147,437.596 11.8814,440.929 13,444.5C 13.3333,444.167 13.6667,443.833 14,443.5C 16.7679,448.286 18.7679,453.286 20,458.5C 19,457.167 18,455.833 17,454.5C 16.3333,455.833 15.6667,455.833 15,454.5C 13.4159,449.734 11.0825,445.4 8,441.5C 8.88167,445.109 9.88167,448.776 11,452.5C 13.4416,455.048 15.1083,458.048 16,461.5C 16.3333,461.167 16.6667,460.833 17,460.5C 22.9776,469.376 27.6443,479.042 31,489.5C 38.089,496.749 44.9223,504.082 51.5,511.5C 34.1667,511.5 16.8333,511.5 -0.5,511.5C -0.5,475.833 -0.5,440.167 -0.5,404.5 Z"/></g>
<g><path style="opacity:1" fill="#c5c4c4" d="M 121.5,469.5 C 130.944,472.191 140.611,473.191 150.5,472.5C 143.345,473.655 136.012,473.822 128.5,473C 125.719,472.478 123.385,471.311 121.5,469.5 Z"/></g>
<g><path style="opacity:1" fill="#c4c3c3" d="M 356.5,468.5 C 361.327,468.941 365.993,470.107 370.5,472C 379.494,472.5 388.494,472.666 397.5,472.5C 391.69,473.49 385.69,473.823 379.5,473.5C 371.288,473.861 363.621,472.194 356.5,468.5 Z"/></g>
<g><path style="opacity:1" fill="#e1e1e1" d="M 511.5,472.5 C 511.5,485.5 511.5,498.5 511.5,511.5C 502.5,511.5 493.5,511.5 484.5,511.5C 490.478,501.999 496.311,492.333 502,482.5C 505.736,479.6 508.903,476.266 511.5,472.5 Z"/></g>
<g><path style="opacity:1" fill="#dcdcdc" d="M 308.5,511.5 C 272.5,511.5 236.5,511.5 200.5,511.5C 204.075,508.445 208.075,505.945 212.5,504C 214.977,502.295 216.311,500.295 216.5,498C 219.362,497.07 221.695,495.403 223.5,493C 228.467,491.129 228.634,491.963 224,495.5C 223.312,496.332 223.479,496.998 224.5,497.5C 228.003,493.927 231.669,490.594 235.5,487.5C 239.384,486.559 243.051,485.059 246.5,483C 251.572,482.249 256.572,482.582 261.5,484C 265.848,486.847 270.515,489.014 275.5,490.5C 276.228,492.193 277.228,493.693 278.5,495C 282.537,496.537 286.204,498.704 289.5,501.5C 289.833,501.333 290.167,501.167 290.5,501C 288.792,498.957 286.792,497.29 284.5,496C 285.5,495.333 286.5,495.333 287.5,496C 290.68,499.196 294.347,501.529 298.5,503C 299.833,503.667 299.833,504.333 298.5,505C 301.518,507.889 304.852,510.056 308.5,511.5 Z"/></g>
</svg>
